<svg width="60" height="60" viewBox="0 0 60 60" fill="none" xmlns="http://www.w3.org/2000/svg">
<path d="M35.0002 42.2751C34.5252 42.2751 34.0502 42.1001 33.6752 41.7251L23.7752 31.8251C23.0502 31.1001 23.0502 29.9001 23.7752 29.1751C24.5002 28.4501 25.7002 28.4501 26.4252 29.1751L36.3252 39.0751C37.0502 39.8001 37.0502 41.0001 36.3252 41.7251C35.9502 42.0751 35.4752 42.2751 35.0002 42.2751Z" fill="#3366FF"/>
<path d="M24.9996 42.375C24.5246 42.375 24.0496 42.2 23.6746 41.825C22.9496 41.1 22.9496 39.9 23.6746 39.175L33.5746 29.275C34.2996 28.55 35.4996 28.55 36.2246 29.275C36.9496 30 36.9496 31.2 36.2246 31.925L26.3246 41.825C25.9496 42.2 25.4746 42.375 24.9996 42.375Z" fill="#091A7A"/>
<path d="M35 16.875H25C22.6 16.875 18.125 16.875 18.125 10C18.125 3.125 22.6 3.125 25 3.125H35C37.4 3.125 41.875 3.125 41.875 10C41.875 12.4 41.875 16.875 35 16.875ZM25 6.875C22.525 6.875 21.875 6.875 21.875 10C21.875 13.125 22.525 13.125 25 13.125H35C38.125 13.125 38.125 12.475 38.125 10C38.125 6.875 37.475 6.875 35 6.875H25Z" fill="#3366FF"/>
<path d="M37.5 56.8751H22.5C8.45 56.8751 5.625 50.4251 5.625 40.0001V25.0001C5.625 13.6001 9.75 8.72507 19.9 8.20007C20.95 8.15007 21.825 8.92507 21.875 9.97507C21.925 11.0251 21.125 11.8751 20.1 11.9251C13 12.3251 9.375 14.4501 9.375 25.0001V40.0001C9.375 49.2501 11.2 53.1251 22.5 53.1251H37.5C48.8 53.1251 50.625 49.2501 50.625 40.0001V25.0001C50.625 14.4501 47 12.3251 39.9 11.9251C38.875 11.8751 38.075 10.9751 38.125 9.95007C38.175 8.92507 39.075 8.12507 40.1 8.17507C50.25 8.72507 54.375 13.6001 54.375 24.9751V39.9751C54.375 50.4251 51.55 56.8751 37.5 56.8751Z" fill="#292D32"/>
</svg>
