<svg width="60" height="60" viewBox="0 0 60 60" fill="none" xmlns="http://www.w3.org/2000/svg">
<path d="M30 21.875C29.75 21.875 29.525 21.825 29.275 21.725C28.575 21.45 28.125 20.75 28.125 20V5C28.125 3.975 28.975 3.125 30 3.125C31.025 3.125 31.875 3.975 31.875 5V15.475L33.675 13.675C34.4 12.95 35.6 12.95 36.325 13.675C37.05 14.4 37.05 15.6 36.325 16.325L31.325 21.325C30.975 21.675 30.475 21.875 30 21.875Z" fill="#3366FF"/>
<path d="M30 21.8751C29.525 21.8751 29.05 21.7001 28.675 21.3251L23.675 16.3251C22.95 15.6001 22.95 14.4001 23.675 13.6751C24.4 12.9501 25.6 12.9501 26.325 13.6751L31.325 18.6751C32.05 19.4001 32.05 20.6001 31.325 21.3251C30.95 21.7001 30.475 21.8751 30 21.8751Z" fill="#3366FF"/>
<path d="M40 56.875H20C5.625 56.875 5.625 49.25 5.625 42.5V40C5.625 34.425 5.625 28.125 17.5 28.125C20.475 28.125 21.575 28.85 23.125 30C23.2 30.075 23.3 30.125 23.375 30.225L25.925 32.925C28.075 35.2 31.975 35.2 34.125 32.925L36.675 30.225C36.75 30.15 36.825 30.075 36.925 30C38.475 28.825 39.575 28.125 42.55 28.125C54.425 28.125 54.425 34.425 54.425 40V42.5C54.375 52.05 49.55 56.875 40 56.875ZM17.5 31.875C9.375 31.875 9.375 34.425 9.375 40V42.5C9.375 49.35 9.375 53.125 20 53.125H40C47.45 53.125 50.625 49.95 50.625 42.5V40C50.625 34.425 50.625 31.875 42.5 31.875C40.7 31.875 40.325 32.1 39.25 32.9L36.825 35.475C35.025 37.375 32.6 38.425 30 38.425C27.4 38.425 24.975 37.375 23.175 35.475L20.75 32.9C19.675 32.1 19.3 31.875 17.5 31.875Z" fill="#3366FF"/>
<path d="M12.5 31.8749C11.475 31.8749 10.625 31.0249 10.625 29.9999V19.9999C10.625 15.1499 10.625 9.12491 19.825 8.24991C20.85 8.14991 21.775 8.89991 21.875 9.94991C21.975 10.9749 21.225 11.8999 20.175 11.9999C14.375 12.5249 14.375 14.8749 14.375 19.9999V29.9999C14.375 31.0249 13.525 31.8749 12.5 31.8749Z" fill="#091A7A"/>
<path d="M47.5001 31.8751C46.4751 31.8751 45.6251 31.0251 45.6251 30.0001V20.0001C45.6251 14.8751 45.6251 12.5251 39.8251 11.9751C38.8001 11.8751 38.0501 10.9501 38.1501 9.92506C38.2501 8.90006 39.1501 8.12506 40.2001 8.25006C49.4001 9.12506 49.4001 15.1501 49.4001 20.0001V30.0001C49.3751 31.0251 48.5251 31.8751 47.5001 31.8751Z" fill="#091A7A"/>
</svg>
