<svg width="60" height="60" viewBox="0 0 60 60" fill="none" xmlns="http://www.w3.org/2000/svg">
<path d="M39.9994 55.7996C39.1494 55.7996 38.3244 55.5497 37.5994 55.0747L26.9494 47.9746H22.2244C21.6494 47.9746 21.0994 47.6997 20.7494 47.2497C20.3994 46.7747 20.2744 46.1746 20.4244 45.6246C20.5744 45.0246 20.6494 44.4246 20.6494 43.7746C20.6494 41.7746 19.8994 39.8497 18.5494 38.3497C17.0244 36.6247 14.8494 35.6496 12.5244 35.6496C10.2994 35.6496 8.22437 36.5246 6.69937 38.0996C6.22437 38.5996 5.4994 38.7996 4.8494 38.5996C4.1994 38.3996 3.6744 37.8746 3.5244 37.1996C3.2744 36.0996 3.14941 34.8996 3.14941 33.5996V18.5996C3.14941 9.99961 8.92441 4.22461 17.5244 4.22461H42.5244C51.1244 4.22461 56.8994 9.99961 56.8994 18.5996V33.5996C56.8994 37.7746 55.5244 41.3745 52.8994 43.9995C50.6994 46.1995 47.7744 47.5247 44.3994 47.8747V51.4246C44.3994 53.0496 43.4994 54.5246 42.0744 55.2996C41.3994 55.6246 40.6994 55.7996 39.9994 55.7996ZM24.3744 44.1996H27.4994C27.8744 44.1996 28.2244 44.2996 28.5494 44.5246L39.6744 51.9497C39.9244 52.1247 40.1744 52.0495 40.2994 51.9745C40.4244 51.8995 40.6494 51.7496 40.6494 51.3996V46.0746C40.6494 45.0496 41.4994 44.1996 42.5244 44.1996C45.6994 44.1996 48.3744 43.1997 50.2494 41.3247C52.1494 39.4247 53.1494 36.7496 53.1494 33.5746V18.5746C53.1494 12.1246 48.9744 7.94958 42.5244 7.94958H17.5244C11.0744 7.94958 6.89941 12.1246 6.89941 18.5746V33.2746C8.59941 32.3496 10.5244 31.8746 12.5244 31.8746C15.9244 31.8746 19.1494 33.3246 21.3494 35.8246C23.2994 37.9996 24.3994 40.8246 24.3994 43.7496C24.3744 43.8996 24.3744 44.0496 24.3744 44.1996Z" fill="#3366FF"/>
<path d="M12.5 55.625C9.55 55.625 6.74997 54.525 4.57497 52.55C3.69997 51.8 2.92498 50.875 2.32498 49.85C1.22498 48.05 0.625 45.925 0.625 43.75C0.625 40.625 1.82499 37.7 3.97499 35.475C6.22499 33.15 9.25 31.875 12.5 31.875C15.9 31.875 19.125 33.325 21.325 35.825C23.275 38 24.375 40.825 24.375 43.75C24.375 44.7 24.25 45.65 24 46.55C23.75 47.675 23.275 48.85 22.625 49.875C20.55 53.425 16.65 55.625 12.5 55.625ZM12.5 35.625C10.275 35.625 8.20003 36.5 6.67503 38.075C5.20003 39.6 4.375 41.6 4.375 43.75C4.375 45.225 4.775 46.675 5.55 47.925C5.95 48.625 6.47497 49.2499 7.07497 49.7749C8.57497 51.1499 10.5 51.9 12.5 51.9C15.375 51.9 17.975 50.425 19.45 47.975C19.9 47.275 20.2 46.5001 20.375 45.7001C20.55 45.0501 20.625 44.425 20.625 43.775C20.625 41.775 19.875 39.8501 18.525 38.3501C17.025 36.6001 14.825 35.625 12.5 35.625Z" fill="#091A7A"/>
<path d="M15.175 48.2247C14.7 48.2247 14.225 48.0498 13.85 47.6748L8.575 42.3998C7.85 41.6748 7.85 40.4748 8.575 39.7498C9.3 39.0248 10.5 39.0248 11.225 39.7498L16.5 45.0248C17.225 45.7498 17.225 46.9498 16.5 47.6748C16.125 48.0498 15.65 48.2247 15.175 48.2247Z" fill="#3366FF"/>
<path d="M9.82529 48.3C9.35029 48.3 8.87529 48.125 8.50029 47.75C7.77529 47.025 7.77529 45.825 8.50029 45.1L13.7753 39.825C14.5003 39.1 15.7003 39.1 16.4253 39.825C17.1503 40.55 17.1503 41.75 16.4253 42.475L11.1503 47.75C10.7753 48.125 10.3003 48.3 9.82529 48.3Z" fill="#292D32"/>
<path d="M38.75 28.125H21.25C20.225 28.125 19.375 27.275 19.375 26.25C19.375 25.225 20.225 24.375 21.25 24.375H38.75C39.775 24.375 40.625 25.225 40.625 26.25C40.625 27.275 39.775 28.125 38.75 28.125Z" fill="#292D32"/>
</svg>
