<svg width="21" height="21" viewBox="0 0 21 21" fill="none" xmlns="http://www.w3.org/2000/svg">
<path d="M10.9198 14.4614C8.73643 14.4614 6.96143 12.6864 6.96143 10.5031V5.91976C6.96143 3.73643 8.73643 1.96143 10.9198 1.96143C13.1031 1.96143 14.8781 3.73643 14.8781 5.91976V10.5031C14.8781 12.6864 13.1031 14.4614 10.9198 14.4614ZM10.9198 3.21143C9.42809 3.21143 8.21143 4.42809 8.21143 5.91976V10.5031C8.21143 11.9948 9.42809 13.2114 10.9198 13.2114C12.4114 13.2114 13.6281 11.9948 13.6281 10.5031V5.91976C13.6281 4.42809 12.4114 3.21143 10.9198 3.21143Z" fill="#292D32"/>
<path d="M10.9199 17.3781C7.06159 17.3781 3.91992 14.2364 3.91992 10.3781V8.96143C3.91992 8.61976 4.20326 8.33643 4.54492 8.33643C4.88659 8.33643 5.16992 8.61976 5.16992 8.96143V10.3781C5.16992 13.5448 7.75326 16.1281 10.9199 16.1281C14.0866 16.1281 16.6699 13.5448 16.6699 10.3781V8.96143C16.6699 8.61976 16.9533 8.33643 17.2949 8.33643C17.6366 8.33643 17.9199 8.61976 17.9199 8.96143V10.3781C17.9199 14.2364 14.7783 17.3781 10.9199 17.3781Z" fill="#292D32"/>
<path d="M12.0783 6.90335C12.0116 6.90335 11.9366 6.89502 11.8616 6.87002C11.2533 6.64502 10.5866 6.64502 9.97832 6.87002C9.65332 6.98669 9.29498 6.82002 9.17832 6.49502C9.06165 6.17002 9.22832 5.81169 9.55332 5.69502C10.4366 5.37835 11.4116 5.37835 12.295 5.69502C12.62 5.81169 12.7866 6.17002 12.67 6.49502C12.57 6.74502 12.3283 6.90335 12.0783 6.90335Z" fill="#292D32"/>
<path d="M11.5865 8.67002C11.5282 8.67002 11.4782 8.66169 11.4198 8.64502C11.0865 8.55335 10.7448 8.55335 10.4115 8.64502C10.0782 8.73669 9.73649 8.53669 9.64482 8.20335C9.55316 7.87835 9.75316 7.53669 10.0865 7.44502C10.6282 7.29502 11.2115 7.29502 11.7532 7.44502C12.0865 7.53669 12.2865 7.87835 12.1948 8.21169C12.1198 8.48669 11.8615 8.67002 11.5865 8.67002Z" fill="#292D32"/>
<path d="M10.9199 19.8784C10.5783 19.8784 10.2949 19.5951 10.2949 19.2534V16.7534C10.2949 16.4118 10.5783 16.1284 10.9199 16.1284C11.2616 16.1284 11.5449 16.4118 11.5449 16.7534V19.2534C11.5449 19.5951 11.2616 19.8784 10.9199 19.8784Z" fill="#292D32"/>
</svg>
