<svg width="60" height="60" viewBox="0 0 60 60" fill="none" xmlns="http://www.w3.org/2000/svg">
<path d="M27.5 51.875C14.05 51.875 3.125 40.95 3.125 27.5C3.125 14.05 14.05 3.125 27.5 3.125C40.95 3.125 51.875 14.05 51.875 27.5C51.875 40.95 40.95 51.875 27.5 51.875ZM27.5 6.875C16.125 6.875 6.875 16.125 6.875 27.5C6.875 38.875 16.125 48.125 27.5 48.125C38.875 48.125 48.125 38.875 48.125 27.5C48.125 16.125 38.875 6.875 27.5 6.875Z" fill="#3366FF"/>
<path d="M33.75 29.375H21.25C20.225 29.375 19.375 28.525 19.375 27.5C19.375 26.475 20.225 25.625 21.25 25.625H33.75C34.775 25.625 35.625 26.475 35.625 27.5C35.625 28.525 34.775 29.375 33.75 29.375Z" fill="#091A7A"/>
<path d="M50.4002 56.975C50.2002 56.975 50.0002 56.95 49.8252 56.925C48.6502 56.775 46.5252 55.975 45.3252 52.4C44.7002 50.525 44.9252 48.65 45.9502 47.225C46.9752 45.8 48.7002 45 50.6752 45C53.2252 45 55.2252 45.975 56.1252 47.7C57.0252 49.425 56.7752 51.625 55.3502 53.75C53.5752 56.425 51.6502 56.975 50.4002 56.975ZM48.9002 51.225C49.3252 52.525 49.9252 53.175 50.3252 53.225C50.7252 53.275 51.4752 52.8 52.2502 51.675C52.9752 50.6 53.0252 49.825 52.8502 49.475C52.6752 49.125 51.9752 48.75 50.6752 48.75C49.9002 48.75 49.3252 49 49.0002 49.425C48.7002 49.85 48.6502 50.5 48.9002 51.225Z" fill="#3366FF"/>
</svg>
