<svg width="60" height="60" viewBox="0 0 60 60" fill="none" xmlns="http://www.w3.org/2000/svg">
<path d="M30 56.9001C27.275 56.9001 24.575 56.1001 22.45 54.5251L11.7 46.5001C8.85 44.3751 6.625 39.9251 6.625 36.4001V17.8001C6.625 13.9501 9.45 9.8501 13.075 8.5001L25.55 3.8251C28.025 2.9001 31.925 2.9001 34.4 3.8251L46.875 8.5001C50.5 9.8501 53.325 13.9501 53.325 17.8001V36.3751C53.325 39.9251 51.1 44.3501 48.25 46.4751L37.5 54.5001C35.425 56.1001 32.725 56.9001 30 56.9001ZM26.875 7.3501L14.4 12.0251C12.275 12.8251 10.4 15.5251 10.4 17.8251V36.4001C10.4 38.7751 12.075 42.1001 13.95 43.5001L24.7 51.5251C27.575 53.6751 32.425 53.6751 35.325 51.5251L46.075 43.5001C47.975 42.0751 49.625 38.7751 49.625 36.4001V17.8001C49.625 15.5251 47.75 12.8251 45.625 12.0001L33.15 7.3251C31.45 6.7251 28.55 6.7251 26.875 7.3501Z" fill="#3366FF"/>
<path d="M26.6501 35.5751C26.1751 35.5751 25.7001 35.4001 25.3251 35.0251L21.3001 31C20.5751 30.275 20.5751 29.0751 21.3001 28.3501C22.0251 27.6251 23.2251 27.6251 23.9501 28.3501L26.6501 31.0501L36.0751 21.625C36.8001 20.9 38.0001 20.9 38.7251 21.625C39.4501 22.35 39.4501 23.5501 38.7251 24.2751L27.9751 35.0251C27.6001 35.4001 27.1251 35.5751 26.6501 35.5751Z" fill="#091A7A"/>
</svg>
