<svg width="40" height="41" viewBox="0 0 40 41" fill="none" xmlns="http://www.w3.org/2000/svg">
<rect y="0.5" width="40" height="40" rx="8" fill="#6690FF"/>
<path d="M15.7887 33C12.5537 33 9.53817 32.0591 7 30.4356C9.15499 30.5751 12.9581 30.2411 15.3236 27.9848C11.7651 27.8215 10.1603 25.0923 9.95094 23.926C10.2533 24.0426 11.6953 24.1826 12.5093 23.856C8.4159 22.8296 7.78793 19.2373 7.92748 18.141C8.695 18.6775 9.99745 18.8641 10.5091 18.8174C6.69479 16.0882 8.06703 11.9828 8.74151 11.0963C11.4788 14.8887 15.5812 17.0186 20.6564 17.137C20.5607 16.7174 20.5102 16.2804 20.5102 15.8316C20.5102 12.6109 23.1134 10 26.3247 10C28.0025 10 29.5144 10.7128 30.5757 11.8528C31.6969 11.5901 33.3843 10.9751 34.2092 10.4432C33.7934 11.9361 32.4989 13.1815 31.7159 13.6431C31.7095 13.6273 31.7224 13.6588 31.7159 13.6431C32.4037 13.539 34.2648 13.1814 35 12.6826C34.6364 13.5213 33.264 14.9157 32.1377 15.6964C32.3473 24.9381 25.2765 33 15.7887 33Z" fill="white"/>
</svg>
